<?xml version="1.0" encoding="UTF-8" standalone="no"?>
<!DOCTYPE svg PUBLIC "-//W3C//DTD SVG 1.1//EN"
 "http://www.w3.org/Graphics/SVG/1.1/DTD/svg11.dtd">
<!-- Generated by graphviz version 12.1.0 (20240811.2233)
 -->
<!-- Title: list Pages: 1 -->
<svg width="20733pt" height="36864pt"
 viewBox="0.00 0.00 20732.77 36864.00" xmlns="http://www.w3.org/2000/svg" xmlns:xlink="http://www.w3.org/1999/xlink">
<g id="graph0" class="graph" transform="scale(72.2257 72.2257) rotate(0) translate(4 506.4)">
<title>list</title>
<polygon fill="#212529" stroke="none" points="-4,4 -4,-506.4 283.06,-506.4 283.06,4 -4,4"/>
<text text-anchor="start" x="15.4" y="-482.3" font-family="Arial" font-weight="bold" font-size="18.00" fill="#ffffff">Character:</text>
<text text-anchor="start" x="103.9" y="-482.3" font-family="Arial" font-size="18.00" fill="#ffffff"> Dr. Stanley Regular</text>
<text text-anchor="start" x="12.03" y="-464.3" font-family="Arial" font-weight="bold" font-size="18.00" fill="#ffffff">Behavior:</text>
<text text-anchor="start" x="94.53" y="-464.3" font-family="Arial" font-size="18.00" fill="#ffffff"> &#160;b_dream_discussion</text>
<!-- i -->
<g id="node1" class="node">
<title>i</title>
<ellipse fill="black" stroke="black" cx="52.43" cy="-451.2" rx="7.2" ry="7.2"/>
<text text-anchor="middle" x="52.43" y="-450.9" font-family="Times,serif" font-size="1.00">i</text>
</g>
<!-- s_init -->
<g id="node2" class="node">
<title>s_init</title>
<path fill="#6c757d" stroke="black" d="M68.31,-407C68.31,-407 36.56,-407 36.56,-407 30.56,-407 24.56,-401 24.56,-395 24.56,-395 24.56,-383 24.56,-383 24.56,-377 30.56,-371 36.56,-371 36.56,-371 68.31,-371 68.31,-371 74.31,-371 80.31,-377 80.31,-383 80.31,-383 80.31,-395 80.31,-395 80.31,-401 74.31,-407 68.31,-407"/>
<text text-anchor="middle" x="52.43" y="-382.4" font-family="Arial" font-size="18.00" fill="#ffffff">S init</text>
</g>
<!-- i&#45;&gt;s_init -->
<g id="edge1" class="edge">
<title>i&#45;&gt;s_init</title>
<path fill="none" stroke="#f8f9fa" d="M52.43,-443.76C52.43,-437.7 52.43,-428.19 52.43,-418.84"/>
<polygon fill="#f8f9fa" stroke="#f8f9fa" points="55.93,-418.88 52.43,-408.88 48.93,-418.88 55.93,-418.88"/>
</g>
<!-- s_start -->
<g id="node6" class="node">
<title>s_start</title>
<path fill="#6c757d" stroke="black" d="M74.68,-316.25C74.68,-316.25 30.18,-316.25 30.18,-316.25 24.18,-316.25 18.18,-310.25 18.18,-304.25 18.18,-304.25 18.18,-292.25 18.18,-292.25 18.18,-286.25 24.18,-280.25 30.18,-280.25 30.18,-280.25 74.68,-280.25 74.68,-280.25 80.68,-280.25 86.68,-286.25 86.68,-292.25 86.68,-292.25 86.68,-304.25 86.68,-304.25 86.68,-310.25 80.68,-316.25 74.68,-316.25"/>
<text text-anchor="middle" x="52.43" y="-291.65" font-family="Arial" font-size="18.00" fill="#ffffff">S start</text>
</g>
<!-- s_init&#45;&gt;s_start -->
<g id="edge6" class="edge">
<title>s_init&#45;&gt;s_start</title>
<path fill="none" stroke="#f8f9fa" d="M52.43,-370.89C52.43,-358.69 52.43,-342 52.43,-327.8"/>
<polygon fill="#f8f9fa" stroke="#f8f9fa" points="55.93,-328.13 52.43,-318.13 48.93,-328.13 55.93,-328.13"/>
<text text-anchor="middle" x="71.93" y="-337.8" font-family="Arial" font-size="16.00" fill="#ffffff">e_init</text>
</g>
<!-- s_dynamic -->
<g id="node3" class="node">
<title>s_dynamic</title>
<path fill="#6c757d" stroke="black" d="M90.06,-225.5C90.06,-225.5 14.81,-225.5 14.81,-225.5 8.81,-225.5 2.81,-219.5 2.81,-213.5 2.81,-213.5 2.81,-201.5 2.81,-201.5 2.81,-195.5 8.81,-189.5 14.81,-189.5 14.81,-189.5 90.06,-189.5 90.06,-189.5 96.06,-189.5 102.06,-195.5 102.06,-201.5 102.06,-201.5 102.06,-213.5 102.06,-213.5 102.06,-219.5 96.06,-225.5 90.06,-225.5"/>
<text text-anchor="middle" x="52.43" y="-200.9" font-family="Arial" font-size="18.00" fill="#ffffff">S dynamic</text>
</g>
<!-- s_dynamic&#45;&gt;s_dynamic -->
<g id="edge2" class="edge">
<title>s_dynamic&#45;&gt;s_dynamic</title>
<path fill="none" stroke="#f8f9fa" d="M102.27,-211.6C112.61,-211.17 120.06,-209.8 120.06,-207.5 120.06,-206.17 117.57,-205.15 113.47,-204.44"/>
<polygon fill="#f8f9fa" stroke="#f8f9fa" points="114.06,-200.98 103.77,-203.54 113.41,-207.95 114.06,-200.98"/>
<text text-anchor="middle" x="159.81" y="-201.68" font-family="Arial" font-size="16.00" fill="#ffffff">e_advance</text>
</g>
<!-- s_dynamic&#45;&gt;s_dynamic -->
<g id="edge4" class="edge">
<title>s_dynamic&#45;&gt;s_dynamic</title>
<path fill="none" stroke="#f8f9fa" d="M102.24,-215C146.02,-217.62 199.56,-215.12 199.56,-207.5 199.56,-200.53 154.83,-197.85 113.7,-199.44"/>
<polygon fill="#f8f9fa" stroke="#f8f9fa" points="113.57,-195.94 103.75,-199.92 113.91,-202.93 113.57,-195.94"/>
<text text-anchor="middle" x="230.31" y="-201.68" font-family="Arial" font-size="16.00" fill="#ffffff">e_speak</text>
</g>
<!-- s_stop -->
<g id="node4" class="node">
<title>s_stop</title>
<path fill="#6c757d" stroke="black" d="M73.93,-134.75C73.93,-134.75 30.93,-134.75 30.93,-134.75 24.93,-134.75 18.93,-128.75 18.93,-122.75 18.93,-122.75 18.93,-110.75 18.93,-110.75 18.93,-104.75 24.93,-98.75 30.93,-98.75 30.93,-98.75 73.93,-98.75 73.93,-98.75 79.93,-98.75 85.93,-104.75 85.93,-110.75 85.93,-110.75 85.93,-122.75 85.93,-122.75 85.93,-128.75 79.93,-134.75 73.93,-134.75"/>
<text text-anchor="middle" x="52.43" y="-110.15" font-family="Arial" font-size="18.00" fill="#ffffff">S stop</text>
</g>
<!-- s_dynamic&#45;&gt;s_stop -->
<g id="edge3" class="edge">
<title>s_dynamic&#45;&gt;s_stop</title>
<path fill="none" stroke="#f8f9fa" d="M18.38,-189.07C12.16,-184.26 6.51,-178.42 2.93,-171.5 -0.9,-164.1 -0.9,-160.15 2.93,-152.75 4.86,-149.03 7.38,-145.61 10.28,-142.51"/>
<polygon fill="#f8f9fa" stroke="#f8f9fa" points="12.41,-145.29 17.5,-136 7.73,-140.09 12.41,-145.29"/>
<text text-anchor="middle" x="42.68" y="-156.3" font-family="Arial" font-size="16.00" fill="#ffffff">e_advance</text>
</g>
<!-- s_dynamic&#45;&gt;s_stop -->
<g id="edge5" class="edge">
<title>s_dynamic&#45;&gt;s_stop</title>
<path fill="none" stroke="#f8f9fa" d="M71.39,-189.24C75.87,-184.02 80.04,-177.96 82.43,-171.5 85.32,-163.68 85.32,-160.57 82.43,-152.75 81.35,-149.83 79.9,-146.98 78.22,-144.26"/>
<polygon fill="#f8f9fa" stroke="#f8f9fa" points="81.05,-142.19 72.29,-136.23 75.42,-146.35 81.05,-142.19"/>
<text text-anchor="middle" x="108.97" y="-156.3" font-family="Arial" font-size="16.00" fill="#ffffff">e_stop</text>
</g>
<!-- s_stop&#45;&gt;s_stop -->
<g id="edge10" class="edge">
<title>s_stop&#45;&gt;s_stop</title>
<path fill="none" stroke="#f8f9fa" d="M86.11,-125.24C96.13,-124.99 103.93,-122.16 103.93,-116.75 103.93,-113.62 101.32,-111.36 97.19,-109.96"/>
<polygon fill="#f8f9fa" stroke="#f8f9fa" points="98.02,-106.54 87.61,-108.49 96.96,-113.46 98.02,-106.54"/>
<text text-anchor="middle" x="134.68" y="-110.92" font-family="Arial" font-size="16.00" fill="#ffffff">e_speak</text>
</g>
<!-- s_final -->
<g id="node5" class="node">
<title>s_final</title>
<path fill="#007bff" stroke="black" stroke-width="2" d="M73.18,-40C73.18,-40 31.68,-40 31.68,-40 25.68,-40 19.68,-34 19.68,-28 19.68,-28 19.68,-16 19.68,-16 19.68,-10 25.68,-4 31.68,-4 31.68,-4 73.18,-4 73.18,-4 79.18,-4 85.18,-10 85.18,-16 85.18,-16 85.18,-28 85.18,-28 85.18,-34 79.18,-40 73.18,-40"/>
<path fill="none" stroke="black" stroke-width="2" d="M77.18,-44C77.18,-44 27.68,-44 27.68,-44 21.68,-44 15.68,-38 15.68,-32 15.68,-32 15.68,-12 15.68,-12 15.68,-6 21.68,0 27.68,0 27.68,0 77.18,0 77.18,0 83.18,0 89.18,-6 89.18,-12 89.18,-12 89.18,-32 89.18,-32 89.18,-38 83.18,-44 77.18,-44"/>
<text text-anchor="middle" x="52.43" y="-15.4" font-family="Arial" font-size="18.00" fill="#ffffff">S final</text>
</g>
<!-- s_stop&#45;&gt;s_final -->
<g id="edge9" class="edge">
<title>s_stop&#45;&gt;s_final</title>
<path fill="none" stroke="#f8f9fa" d="M18.63,-98.52C12.31,-93.67 6.56,-87.76 2.93,-80.75 -2.17,-70.9 1.41,-61.3 8.52,-52.84"/>
<polygon fill="#f8f9fa" stroke="#f8f9fa" points="10.91,-55.39 15.54,-45.86 5.98,-50.43 10.91,-55.39"/>
<text text-anchor="middle" x="42.68" y="-65.55" font-family="Arial" font-size="16.00" fill="#ffffff">e_advance</text>
</g>
<!-- s_stop&#45;&gt;s_final -->
<g id="edge11" class="edge">
<title>s_stop&#45;&gt;s_final</title>
<path fill="none" stroke="#f8f9fa" d="M71.39,-98.49C75.87,-93.27 80.04,-87.21 82.43,-80.75 85.32,-72.93 85.11,-69.89 82.43,-62 81.52,-59.31 80.33,-56.66 78.97,-54.09"/>
<polygon fill="#f8f9fa" stroke="#f8f9fa" points="82.08,-52.47 73.78,-45.89 76.17,-56.21 82.08,-52.47"/>
<text text-anchor="middle" x="108.52" y="-65.55" font-family="Arial" font-size="16.00" fill="#ffffff">e_final</text>
</g>
<!-- s_start&#45;&gt;s_dynamic -->
<g id="edge7" class="edge">
<title>s_start&#45;&gt;s_dynamic</title>
<path fill="none" stroke="#f8f9fa" d="M52.43,-280.14C52.43,-267.94 52.43,-251.25 52.43,-237.05"/>
<polygon fill="#f8f9fa" stroke="#f8f9fa" points="55.93,-237.38 52.43,-227.38 48.93,-237.38 55.93,-237.38"/>
<text text-anchor="middle" x="92.18" y="-247.05" font-family="Arial" font-size="16.00" fill="#ffffff">e_advance</text>
</g>
<!-- s_start&#45;&gt;s_start -->
<g id="edge8" class="edge">
<title>s_start&#45;&gt;s_start</title>
<path fill="none" stroke="#f8f9fa" d="M87.1,-306.72C97.03,-306.39 104.68,-303.57 104.68,-298.25 104.68,-295.26 102.26,-293.06 98.37,-291.64"/>
<polygon fill="#f8f9fa" stroke="#f8f9fa" points="99.03,-288.2 88.59,-290.02 97.89,-295.11 99.03,-288.2"/>
<text text-anchor="middle" x="135.43" y="-292.43" font-family="Arial" font-size="16.00" fill="#ffffff">e_speak</text>
</g>
</g>
</svg>
