<?xml version="1.0" encoding="UTF-8" standalone="no"?>
<!DOCTYPE svg PUBLIC "-//W3C//DTD SVG 1.1//EN"
 "http://www.w3.org/Graphics/SVG/1.1/DTD/svg11.dtd">
<!-- Generated by graphviz version 12.1.0 (20240811.2233)
 -->
<!-- Title: list Pages: 1 -->
<svg width="36864pt" height="128839pt"
 viewBox="0.00 0.00 36864.00 128839.11" xmlns="http://www.w3.org/2000/svg" xmlns:xlink="http://www.w3.org/1999/xlink">
<g id="graph0" class="graph" transform="scale(56.3502 56.3502) rotate(0) translate(4 2282.4)">
<title>list</title>
<polygon fill="#212529" stroke="none" points="-4,4 -4,-2282.4 650.19,-2282.4 650.19,4 -4,4"/>
<text text-anchor="middle" x="323.1" y="-2259.2" font-family="Arial" font-size="16.00" fill="#ffffff">Scene Manager</text>
<!-- i -->
<g id="node1" class="node">
<title>i</title>
<ellipse fill="black" stroke="black" cx="249.88" cy="-2244.45" rx="7.2" ry="7.2"/>
<text text-anchor="middle" x="249.88" y="-2244.15" font-family="Times,serif" font-size="1.00">i</text>
</g>
<!-- s_init -->
<g id="node2" class="node">
<title>s_init</title>
<path fill="#6c757d" stroke="black" d="M265,-2200.25C265,-2200.25 234.75,-2200.25 234.75,-2200.25 228.75,-2200.25 222.75,-2194.25 222.75,-2188.25 222.75,-2188.25 222.75,-2176.25 222.75,-2176.25 222.75,-2170.25 228.75,-2164.25 234.75,-2164.25 234.75,-2164.25 265,-2164.25 265,-2164.25 271,-2164.25 277,-2170.25 277,-2176.25 277,-2176.25 277,-2188.25 277,-2188.25 277,-2194.25 271,-2200.25 265,-2200.25"/>
<text text-anchor="middle" x="249.88" y="-2176.43" font-family="Arial" font-size="16.00" fill="#ffffff">s_init</text>
</g>
<!-- i&#45;&gt;s_init -->
<g id="edge1" class="edge">
<title>i&#45;&gt;s_init</title>
<path fill="none" stroke="#f8f9fa" d="M249.88,-2237.01C249.88,-2230.95 249.88,-2221.44 249.88,-2212.09"/>
<polygon fill="#f8f9fa" stroke="#f8f9fa" points="253.38,-2212.13 249.88,-2202.13 246.38,-2212.13 253.38,-2212.13"/>
</g>
<!-- s_clerk -->
<g id="node5" class="node">
<title>s_clerk</title>
<path fill="#6c757d" stroke="black" d="M271.75,-2114C271.75,-2114 228,-2114 228,-2114 222,-2114 216,-2108 216,-2102 216,-2102 216,-2090 216,-2090 216,-2084 222,-2078 228,-2078 228,-2078 271.75,-2078 271.75,-2078 277.75,-2078 283.75,-2084 283.75,-2090 283.75,-2090 283.75,-2102 283.75,-2102 283.75,-2108 277.75,-2114 271.75,-2114"/>
<text text-anchor="middle" x="249.88" y="-2090.18" font-family="Arial" font-size="16.00" fill="#ffffff">s_clerk</text>
</g>
<!-- s_init&#45;&gt;s_clerk -->
<g id="edge28" class="edge">
<title>s_init&#45;&gt;s_clerk</title>
<path fill="none" stroke="#f8f9fa" d="M222.44,-2169.86C212.62,-2164.28 202.63,-2156.52 197.12,-2146.25 191.59,-2135.94 197.12,-2126.59 206.37,-2118.89"/>
<polygon fill="#f8f9fa" stroke="#f8f9fa" points="208.33,-2121.79 214.47,-2113.16 204.28,-2116.07 208.33,-2121.79"/>
<text text-anchor="middle" x="239.5" y="-2134.85" font-family="Arial" font-size="12.00" fill="#ffffff">manual_s_clerk</text>
</g>
<!-- s_init&#45;&gt;s_clerk -->
<g id="edge29" class="edge">
<title>s_init&#45;&gt;s_clerk</title>
<path fill="none" stroke="#f8f9fa" d="M270.41,-2163.81C275.07,-2158.68 279.37,-2152.7 281.88,-2146.25 284.99,-2138.23 282.57,-2130.15 277.94,-2122.91"/>
<polygon fill="#f8f9fa" stroke="#f8f9fa" points="281,-2121.15 272.06,-2115.46 275.5,-2125.48 281,-2121.15"/>
<text text-anchor="middle" x="315.9" y="-2134.85" font-family="Arial" font-size="12.00" fill="#ffffff">e_automatic</text>
</g>
<!-- s_back_to_normal -->
<g id="node3" class="node">
<title>s_back_to_normal</title>
<path fill="#6c757d" stroke="black" d="M434.25,-216.5C434.25,-216.5 309.5,-216.5 309.5,-216.5 303.5,-216.5 297.5,-210.5 297.5,-204.5 297.5,-204.5 297.5,-192.5 297.5,-192.5 297.5,-186.5 303.5,-180.5 309.5,-180.5 309.5,-180.5 434.25,-180.5 434.25,-180.5 440.25,-180.5 446.25,-186.5 446.25,-192.5 446.25,-192.5 446.25,-204.5 446.25,-204.5 446.25,-210.5 440.25,-216.5 434.25,-216.5"/>
<text text-anchor="middle" x="371.88" y="-192.68" font-family="Arial" font-size="16.00" fill="#ffffff">s_back_to_normal</text>
</g>
<!-- s_end -->
<g id="node4" class="node">
<title>s_end</title>
<path fill="#6c757d" stroke="black" d="M390,-130.25C390,-130.25 353.75,-130.25 353.75,-130.25 347.75,-130.25 341.75,-124.25 341.75,-118.25 341.75,-118.25 341.75,-106.25 341.75,-106.25 341.75,-100.25 347.75,-94.25 353.75,-94.25 353.75,-94.25 390,-94.25 390,-94.25 396,-94.25 402,-100.25 402,-106.25 402,-106.25 402,-118.25 402,-118.25 402,-124.25 396,-130.25 390,-130.25"/>
<text text-anchor="middle" x="371.88" y="-106.42" font-family="Arial" font-size="16.00" fill="#ffffff">s_end</text>
</g>
<!-- s_back_to_normal&#45;&gt;s_end -->
<g id="edge2" class="edge">
<title>s_back_to_normal&#45;&gt;s_end</title>
<path fill="none" stroke="#f8f9fa" d="M337.82,-180.07C331.6,-175.26 325.96,-169.42 322.38,-162.5 316.96,-152.03 322.79,-142.41 332.12,-134.5"/>
<polygon fill="#f8f9fa" stroke="#f8f9fa" points="334.17,-137.34 340.22,-128.64 330.07,-131.67 334.17,-137.34"/>
<text text-anchor="middle" x="362.12" y="-151.1" font-family="Arial" font-size="12.00" fill="#ffffff">manual_s_end</text>
</g>
<!-- s_back_to_normal&#45;&gt;s_end -->
<g id="edge3" class="edge">
<title>s_back_to_normal&#45;&gt;s_end</title>
<path fill="none" stroke="#f8f9fa" d="M390.83,-180.24C395.32,-175.02 399.49,-168.96 401.88,-162.5 404.74,-154.75 402.64,-146.88 398.48,-139.78"/>
<polygon fill="#f8f9fa" stroke="#f8f9fa" points="401.43,-137.87 392.7,-131.86 395.78,-142 401.43,-137.87"/>
<text text-anchor="middle" x="435.82" y="-151.1" font-family="Arial" font-size="12.00" fill="#ffffff">e_automatic</text>
</g>
<!-- s_final -->
<g id="node13" class="node">
<title>s_final</title>
<path fill="#6c757d" stroke="black" d="M391.5,-40C391.5,-40 352.25,-40 352.25,-40 346.25,-40 340.25,-34 340.25,-28 340.25,-28 340.25,-16 340.25,-16 340.25,-10 346.25,-4 352.25,-4 352.25,-4 391.5,-4 391.5,-4 397.5,-4 403.5,-10 403.5,-16 403.5,-16 403.5,-28 403.5,-28 403.5,-34 397.5,-40 391.5,-40"/>
<path fill="none" stroke="black" d="M395.5,-44C395.5,-44 348.25,-44 348.25,-44 342.25,-44 336.25,-38 336.25,-32 336.25,-32 336.25,-12 336.25,-12 336.25,-6 342.25,0 348.25,0 348.25,0 395.5,0 395.5,0 401.5,0 407.5,-6 407.5,-12 407.5,-12 407.5,-32 407.5,-32 407.5,-38 401.5,-44 395.5,-44"/>
<text text-anchor="middle" x="371.88" y="-16.18" font-family="Arial" font-size="16.00" fill="#ffffff">s_final</text>
</g>
<!-- s_end&#45;&gt;s_final -->
<g id="edge16" class="edge">
<title>s_end&#45;&gt;s_final</title>
<path fill="none" stroke="#f8f9fa" d="M341.45,-97.12C333.37,-91.79 325.65,-84.87 321.12,-76.25 316.09,-66.67 319.96,-57.59 327.37,-49.74"/>
<polygon fill="#f8f9fa" stroke="#f8f9fa" points="329.46,-52.57 334.64,-43.33 324.83,-47.32 329.46,-52.57"/>
<text text-anchor="middle" x="362" y="-64.85" font-family="Arial" font-size="12.00" fill="#ffffff">manual_s_final</text>
</g>
<!-- s_end&#45;&gt;s_final -->
<g id="edge17" class="edge">
<title>s_end&#45;&gt;s_final</title>
<path fill="none" stroke="#f8f9fa" d="M392.21,-94.01C400.31,-84.98 406.87,-73.45 402.88,-62 401.87,-59.11 400.55,-56.28 399.02,-53.54"/>
<polygon fill="#f8f9fa" stroke="#f8f9fa" points="402.05,-51.77 393.61,-45.37 396.21,-55.64 402.05,-51.77"/>
<text text-anchor="middle" x="436.7" y="-64.85" font-family="Arial" font-size="12.00" fill="#ffffff">e_automatic</text>
</g>
<!-- s_wakeup -->
<g id="node6" class="node">
<title>s_wakeup</title>
<path fill="#6c757d" stroke="black" d="M282.25,-2027.75C282.25,-2027.75 217.5,-2027.75 217.5,-2027.75 211.5,-2027.75 205.5,-2021.75 205.5,-2015.75 205.5,-2015.75 205.5,-2003.75 205.5,-2003.75 205.5,-1997.75 211.5,-1991.75 217.5,-1991.75 217.5,-1991.75 282.25,-1991.75 282.25,-1991.75 288.25,-1991.75 294.25,-1997.75 294.25,-2003.75 294.25,-2003.75 294.25,-2015.75 294.25,-2015.75 294.25,-2021.75 288.25,-2027.75 282.25,-2027.75"/>
<text text-anchor="middle" x="249.88" y="-2003.92" font-family="Arial" font-size="16.00" fill="#ffffff">s_wakeup</text>
</g>
<!-- s_clerk&#45;&gt;s_wakeup -->
<g id="edge4" class="edge">
<title>s_clerk&#45;&gt;s_wakeup</title>
<path fill="none" stroke="#f8f9fa" d="M215.56,-2083.32C205.04,-2077.94 194.65,-2070.38 188.62,-2060 182.97,-2050.25 187.34,-2041.67 195.85,-2034.51"/>
<polygon fill="#f8f9fa" stroke="#f8f9fa" points="197.63,-2037.53 203.85,-2028.96 193.64,-2031.78 197.63,-2037.53"/>
<text text-anchor="middle" x="239.25" y="-2048.6" font-family="Arial" font-size="12.00" fill="#ffffff">manual_s_wakeup</text>
</g>
<!-- s_clerk&#45;&gt;s_wakeup -->
<g id="edge5" class="edge">
<title>s_clerk&#45;&gt;s_wakeup</title>
<path fill="none" stroke="#f8f9fa" d="M276.27,-2077.65C281.77,-2072.66 286.82,-2066.72 289.88,-2060 293.7,-2051.56 290.7,-2043.36 284.94,-2036.14"/>
<polygon fill="#f8f9fa" stroke="#f8f9fa" points="287.7,-2033.96 278.21,-2029.24 282.69,-2038.85 287.7,-2033.96"/>
<text text-anchor="middle" x="324.21" y="-2048.6" font-family="Arial" font-size="12.00" fill="#ffffff">e_automatic</text>
</g>
<!-- s_start -->
<g id="node23" class="node">
<title>s_start</title>
<path fill="#6c757d" stroke="black" d="M270.25,-1941.5C270.25,-1941.5 229.5,-1941.5 229.5,-1941.5 223.5,-1941.5 217.5,-1935.5 217.5,-1929.5 217.5,-1929.5 217.5,-1917.5 217.5,-1917.5 217.5,-1911.5 223.5,-1905.5 229.5,-1905.5 229.5,-1905.5 270.25,-1905.5 270.25,-1905.5 276.25,-1905.5 282.25,-1911.5 282.25,-1917.5 282.25,-1917.5 282.25,-1929.5 282.25,-1929.5 282.25,-1935.5 276.25,-1941.5 270.25,-1941.5"/>
<text text-anchor="middle" x="249.88" y="-1917.67" font-family="Arial" font-size="16.00" fill="#ffffff">s_start</text>
</g>
<!-- s_wakeup&#45;&gt;s_start -->
<g id="edge46" class="edge">
<title>s_wakeup&#45;&gt;s_start</title>
<path fill="none" stroke="#f8f9fa" d="M214.72,-1991.27C208.44,-1986.49 202.76,-1980.67 199.12,-1973.75 193.75,-1963.51 199.2,-1954.14 208.23,-1946.39"/>
<polygon fill="#f8f9fa" stroke="#f8f9fa" points="210.1,-1949.36 216.11,-1940.63 205.97,-1943.71 210.1,-1949.36"/>
<text text-anchor="middle" x="240" y="-1962.35" font-family="Arial" font-size="12.00" fill="#ffffff">manual_s_start</text>
</g>
<!-- s_wakeup&#45;&gt;s_start -->
<g id="edge47" class="edge">
<title>s_wakeup&#45;&gt;s_start</title>
<path fill="none" stroke="#f8f9fa" d="M269.46,-1991.58C274.09,-1986.37 278.4,-1980.28 280.88,-1973.75 283.83,-1965.96 281.66,-1958.07 277.36,-1950.96"/>
<polygon fill="#f8f9fa" stroke="#f8f9fa" points="280.2,-1948.91 271.38,-1943.04 274.61,-1953.13 280.2,-1948.91"/>
<text text-anchor="middle" x="314.86" y="-1962.35" font-family="Arial" font-size="12.00" fill="#ffffff">e_automatic</text>
</g>
<!-- s_deepfake_lets_listen -->
<g id="node7" class="node">
<title>s_deepfake_lets_listen</title>
<path fill="#6c757d" stroke="black" d="M321.75,-1079C321.75,-1079 164,-1079 164,-1079 158,-1079 152,-1073 152,-1067 152,-1067 152,-1055 152,-1055 152,-1049 158,-1043 164,-1043 164,-1043 321.75,-1043 321.75,-1043 327.75,-1043 333.75,-1049 333.75,-1055 333.75,-1055 333.75,-1067 333.75,-1067 333.75,-1073 327.75,-1079 321.75,-1079"/>
<text text-anchor="middle" x="242.88" y="-1055.17" font-family="Arial" font-size="16.00" fill="#ffffff">s_deepfake_lets_listen</text>
</g>
<!-- s_have_you_met_mother -->
<g id="node8" class="node">
<title>s_have_you_met_mother</title>
<path fill="#6c757d" stroke="black" d="M330.38,-992.75C330.38,-992.75 155.38,-992.75 155.38,-992.75 149.38,-992.75 143.38,-986.75 143.38,-980.75 143.38,-980.75 143.38,-968.75 143.38,-968.75 143.38,-962.75 149.38,-956.75 155.38,-956.75 155.38,-956.75 330.38,-956.75 330.38,-956.75 336.38,-956.75 342.38,-962.75 342.38,-968.75 342.38,-968.75 342.38,-980.75 342.38,-980.75 342.38,-986.75 336.38,-992.75 330.38,-992.75"/>
<text text-anchor="middle" x="242.88" y="-968.92" font-family="Arial" font-size="16.00" fill="#ffffff">s_have_you_met_mother</text>
</g>
<!-- s_deepfake_lets_listen&#45;&gt;s_have_you_met_mother -->
<g id="edge6" class="edge">
<title>s_deepfake_lets_listen&#45;&gt;s_have_you_met_mother</title>
<path fill="none" stroke="#f8f9fa" d="M157.85,-1042.59C141.56,-1035.21 132.3,-1024.93 142.38,-1010.75 145.34,-1006.57 148.85,-1002.89 152.74,-999.64"/>
<polygon fill="#f8f9fa" stroke="#f8f9fa" points="154.45,-1002.72 160.59,-994.08 150.41,-997.01 154.45,-1002.72"/>
<text text-anchor="middle" x="233.12" y="-1013.6" font-family="Arial" font-size="12.00" fill="#ffffff">manual_s_have_you_met_mother</text>
</g>
<!-- s_deepfake_lets_listen&#45;&gt;s_have_you_met_mother -->
<g id="edge7" class="edge">
<title>s_deepfake_lets_listen&#45;&gt;s_have_you_met_mother</title>
<path fill="none" stroke="#f8f9fa" d="M304.92,-1042.66C312.4,-1038.08 319.08,-1032.3 323.88,-1025 330.8,-1014.47 326.33,-1005.83 316.67,-998.9"/>
<polygon fill="#f8f9fa" stroke="#f8f9fa" points="318.71,-996.03 308.31,-994 315.17,-1002.07 318.71,-996.03"/>
<text text-anchor="middle" x="359.86" y="-1013.6" font-family="Arial" font-size="12.00" fill="#ffffff">e_automatic</text>
</g>
<!-- s_mother_been_met -->
<g id="node16" class="node">
<title>s_mother_been_met</title>
<path fill="#6c757d" stroke="black" d="M191.12,-906.5C191.12,-906.5 50.62,-906.5 50.62,-906.5 44.62,-906.5 38.62,-900.5 38.62,-894.5 38.62,-894.5 38.62,-882.5 38.62,-882.5 38.62,-876.5 44.62,-870.5 50.62,-870.5 50.62,-870.5 191.12,-870.5 191.12,-870.5 197.12,-870.5 203.12,-876.5 203.12,-882.5 203.12,-882.5 203.12,-894.5 203.12,-894.5 203.12,-900.5 197.12,-906.5 191.12,-906.5"/>
<text text-anchor="middle" x="120.88" y="-882.67" font-family="Arial" font-size="16.00" fill="#ffffff">s_mother_been_met</text>
</g>
<!-- s_have_you_met_mother&#45;&gt;s_mother_been_met -->
<g id="edge24" class="edge">
<title>s_have_you_met_mother&#45;&gt;s_mother_been_met</title>
<path fill="none" stroke="#f8f9fa" d="M143.14,-970.42C91.95,-966.38 37,-957.62 20.88,-938.75 11.26,-927.5 16.32,-918.57 28.14,-911.59"/>
<polygon fill="#f8f9fa" stroke="#f8f9fa" points="29.54,-914.8 37.01,-907.28 26.48,-908.5 29.54,-914.8"/>
<text text-anchor="middle" x="98.88" y="-927.35" font-family="Arial" font-size="12.00" fill="#ffffff">manual_s_mother_been_met</text>
</g>
<!-- s_have_you_met_mother&#45;&gt;s_mother_been_met -->
<g id="edge26" class="edge">
<title>s_have_you_met_mother&#45;&gt;s_mother_been_met</title>
<path fill="none" stroke="#f8f9fa" d="M220.6,-956.41C207.97,-946.76 191.74,-934.67 176.88,-924.5 171.16,-920.59 165.03,-916.58 158.99,-912.73"/>
<polygon fill="#f8f9fa" stroke="#f8f9fa" points="161.27,-910.03 150.94,-907.66 157.54,-915.95 161.27,-910.03"/>
<text text-anchor="middle" x="227.96" y="-927.35" font-family="Arial" font-size="12.00" fill="#ffffff">e_automatic</text>
</g>
<!-- s_mother_not_met -->
<g id="node17" class="node">
<title>s_mother_not_met</title>
<path fill="#6c757d" stroke="black" d="M427.38,-906.5C427.38,-906.5 300.38,-906.5 300.38,-906.5 294.38,-906.5 288.38,-900.5 288.38,-894.5 288.38,-894.5 288.38,-882.5 288.38,-882.5 288.38,-876.5 294.38,-870.5 300.38,-870.5 300.38,-870.5 427.38,-870.5 427.38,-870.5 433.38,-870.5 439.38,-876.5 439.38,-882.5 439.38,-882.5 439.38,-894.5 439.38,-894.5 439.38,-900.5 433.38,-906.5 427.38,-906.5"/>
<text text-anchor="middle" x="363.88" y="-882.67" font-family="Arial" font-size="16.00" fill="#ffffff">s_mother_not_met</text>
</g>
<!-- s_have_you_met_mother&#45;&gt;s_mother_not_met -->
<g id="edge25" class="edge">
<title>s_have_you_met_mother&#45;&gt;s_mother_not_met</title>
<path fill="none" stroke="#f8f9fa" d="M255.82,-956.65C264.25,-946.36 275.95,-933.55 288.38,-924.5 294.72,-919.88 301.77,-915.65 308.94,-911.84"/>
<polygon fill="#f8f9fa" stroke="#f8f9fa" points="310.02,-915.21 317.39,-907.6 306.88,-908.96 310.02,-915.21"/>
<text text-anchor="middle" x="361.12" y="-927.35" font-family="Arial" font-size="12.00" fill="#ffffff">manual_s_mother_not_met</text>
</g>
<!-- s_have_you_met_mother&#45;&gt;s_mother_not_met -->
<g id="edge27" class="edge">
<title>s_have_you_met_mother&#45;&gt;s_mother_not_met</title>
<path fill="none" stroke="#f8f9fa" d="M342.63,-967.02C382.35,-962.07 421.57,-953.51 433.88,-938.75 442.21,-928.75 436.64,-919.83 425.72,-912.42"/>
<polygon fill="#f8f9fa" stroke="#f8f9fa" points="427.69,-909.52 417.28,-907.56 424.2,-915.58 427.69,-909.52"/>
<text text-anchor="middle" x="470.51" y="-927.35" font-family="Arial" font-size="12.00" fill="#ffffff">e_automatic</text>
</g>
<!-- s_diary -->
<g id="node9" class="node">
<title>s_diary</title>
<path fill="#6c757d" stroke="black" d="M272.12,-1510.25C272.12,-1510.25 227.62,-1510.25 227.62,-1510.25 221.62,-1510.25 215.62,-1504.25 215.62,-1498.25 215.62,-1498.25 215.62,-1486.25 215.62,-1486.25 215.62,-1480.25 221.62,-1474.25 227.62,-1474.25 227.62,-1474.25 272.12,-1474.25 272.12,-1474.25 278.12,-1474.25 284.12,-1480.25 284.12,-1486.25 284.12,-1486.25 284.12,-1498.25 284.12,-1498.25 284.12,-1504.25 278.12,-1510.25 272.12,-1510.25"/>
<text text-anchor="middle" x="249.88" y="-1486.42" font-family="Arial" font-size="16.00" fill="#ffffff">s_diary</text>
</g>
<!-- s_dream_was_told -->
<g id="node10" class="node">
<title>s_dream_was_told</title>
<path fill="#007bff" stroke="black" stroke-width="2" d="M139.75,-1424C139.75,-1424 12,-1424 12,-1424 6,-1424 0,-1418 0,-1412 0,-1412 0,-1400 0,-1400 0,-1394 6,-1388 12,-1388 12,-1388 139.75,-1388 139.75,-1388 145.75,-1388 151.75,-1394 151.75,-1400 151.75,-1400 151.75,-1412 151.75,-1412 151.75,-1418 145.75,-1424 139.75,-1424"/>
<text text-anchor="middle" x="75.88" y="-1400.17" font-family="Arial" font-size="16.00" fill="#ffffff">s_dream_was_told</text>
</g>
<!-- s_diary&#45;&gt;s_dream_was_told -->
<g id="edge8" class="edge">
<title>s_diary&#45;&gt;s_dream_was_told</title>
<path fill="none" stroke="#f8f9fa" d="M215.31,-1490.8C160.79,-1489.27 58.71,-1482.83 36.12,-1456.25 29.75,-1448.75 32.71,-1440.46 39.24,-1432.87"/>
<polygon fill="#f8f9fa" stroke="#f8f9fa" points="41.59,-1435.46 46.38,-1426.01 36.74,-1430.41 41.59,-1435.46"/>
<text text-anchor="middle" x="110" y="-1444.85" font-family="Arial" font-size="12.00" fill="#ffffff">manual_s_dream_was_told</text>
</g>
<!-- s_diary&#45;&gt;s_dream_was_told -->
<g id="edge10" class="edge">
<title>s_diary&#45;&gt;s_dream_was_told</title>
<path fill="none" stroke="#f8f9fa" d="M230.22,-1473.88C217.66,-1463.49 200.64,-1450.67 183.88,-1442 174.39,-1437.09 164.08,-1432.7 153.72,-1428.81"/>
<polygon fill="#f8f9fa" stroke="#f8f9fa" points="154.96,-1425.54 144.37,-1425.46 152.6,-1432.13 154.96,-1425.54"/>
<text text-anchor="middle" x="239.6" y="-1444.85" font-family="Arial" font-size="12.00" fill="#ffffff">e_automatic</text>
</g>
<!-- s_dream_wasnt_told -->
<g id="node11" class="node">
<title>s_dream_wasnt_told</title>
<path fill="#6c757d" stroke="black" d="M422.5,-1424C422.5,-1424 281.25,-1424 281.25,-1424 275.25,-1424 269.25,-1418 269.25,-1412 269.25,-1412 269.25,-1400 269.25,-1400 269.25,-1394 275.25,-1388 281.25,-1388 281.25,-1388 422.5,-1388 422.5,-1388 428.5,-1388 434.5,-1394 434.5,-1400 434.5,-1400 434.5,-1412 434.5,-1412 434.5,-1418 428.5,-1424 422.5,-1424"/>
<text text-anchor="middle" x="351.88" y="-1400.17" font-family="Arial" font-size="16.00" fill="#ffffff">s_dream_wasnt_told</text>
</g>
<!-- s_diary&#45;&gt;s_dream_wasnt_told -->
<g id="edge9" class="edge">
<title>s_diary&#45;&gt;s_dream_wasnt_told</title>
<path fill="none" stroke="#f8f9fa" d="M263.61,-1474.2C272.15,-1464.18 283.7,-1451.63 295.38,-1442 300.16,-1438.05 305.43,-1434.22 310.76,-1430.63"/>
<polygon fill="#f8f9fa" stroke="#f8f9fa" points="312.56,-1433.63 319.07,-1425.27 308.77,-1427.75 312.56,-1433.63"/>
<text text-anchor="middle" x="374.12" y="-1444.85" font-family="Arial" font-size="12.00" fill="#ffffff">manual_s_dream_wasnt_told</text>
</g>
<!-- s_diary&#45;&gt;s_dream_wasnt_told -->
<g id="edge11" class="edge">
<title>s_diary&#45;&gt;s_dream_wasnt_told</title>
<path fill="none" stroke="#f8f9fa" d="M284.41,-1490.46C336.6,-1488.45 431.74,-1481.35 452.88,-1456.25 462.63,-1444.66 457.18,-1435.58 444.84,-1428.53"/>
<polygon fill="#f8f9fa" stroke="#f8f9fa" points="446.67,-1425.53 436.13,-1424.41 443.67,-1431.85 446.67,-1425.53"/>
<text text-anchor="middle" x="490.49" y="-1444.85" font-family="Arial" font-size="12.00" fill="#ffffff">e_automatic</text>
</g>
<!-- s_hallucination_intro -->
<g id="node12" class="node">
<title>s_hallucination_intro</title>
<path fill="#6c757d" stroke="black" d="M313.12,-1337.75C313.12,-1337.75 172.62,-1337.75 172.62,-1337.75 166.62,-1337.75 160.62,-1331.75 160.62,-1325.75 160.62,-1325.75 160.62,-1313.75 160.62,-1313.75 160.62,-1307.75 166.62,-1301.75 172.62,-1301.75 172.62,-1301.75 313.12,-1301.75 313.12,-1301.75 319.12,-1301.75 325.12,-1307.75 325.12,-1313.75 325.12,-1313.75 325.12,-1325.75 325.12,-1325.75 325.12,-1331.75 319.12,-1337.75 313.12,-1337.75"/>
<text text-anchor="middle" x="242.88" y="-1313.92" font-family="Arial" font-size="16.00" fill="#ffffff">s_hallucination_intro</text>
</g>
<!-- s_dream_was_told&#45;&gt;s_hallucination_intro -->
<g id="edge12" class="edge">
<title>s_dream_was_told&#45;&gt;s_hallucination_intro</title>
<path fill="none" stroke="#f8f9fa" d="M34.86,-1387.21C20.24,-1378.41 9.56,-1367.22 19.38,-1355.75 36.3,-1335.97 95.63,-1327.29 148.91,-1323.52"/>
<polygon fill="#f8f9fa" stroke="#f8f9fa" points="148.91,-1327.03 158.66,-1322.88 148.45,-1320.04 148.91,-1327.03"/>
<text text-anchor="middle" x="98.12" y="-1358.6" font-family="Arial" font-size="12.00" fill="#ffffff">manual_s_hallucination_intro</text>
</g>
<!-- s_dream_was_told&#45;&gt;s_hallucination_intro -->
<g id="edge13" class="edge">
<title>s_dream_was_told&#45;&gt;s_hallucination_intro</title>
<path fill="none" stroke="#f8f9fa" d="M137.5,-1387.03C150.82,-1382.22 164.58,-1376.52 176.88,-1370 189.8,-1363.15 202.94,-1353.9 214.06,-1345.27"/>
<polygon fill="#f8f9fa" stroke="#f8f9fa" points="216.06,-1348.16 221.69,-1339.18 211.69,-1342.69 216.06,-1348.16"/>
<text text-anchor="middle" x="230.66" y="-1358.6" font-family="Arial" font-size="12.00" fill="#ffffff">e_automatic</text>
</g>
<!-- s_dream_wasnt_told&#45;&gt;s_hallucination_intro -->
<g id="edge14" class="edge">
<title>s_dream_wasnt_told&#45;&gt;s_hallucination_intro</title>
<path fill="none" stroke="#f8f9fa" d="M315.67,-1387.66C306.4,-1382.53 296.7,-1376.52 288.38,-1370 279.63,-1363.15 271.07,-1354.56 263.79,-1346.48"/>
<polygon fill="#f8f9fa" stroke="#f8f9fa" points="266.63,-1344.41 257.43,-1339.16 261.35,-1349 266.63,-1344.41"/>
<text text-anchor="middle" x="367.12" y="-1358.6" font-family="Arial" font-size="12.00" fill="#ffffff">manual_s_hallucination_intro</text>
</g>
<!-- s_dream_wasnt_told&#45;&gt;s_hallucination_intro -->
<g id="edge15" class="edge">
<title>s_dream_wasnt_told&#45;&gt;s_hallucination_intro</title>
<path fill="none" stroke="#f8f9fa" d="M428.66,-1387.54C446.57,-1379.91 457.45,-1369.49 445.88,-1355.75 431.48,-1338.66 382.78,-1329.92 336.69,-1325.44"/>
<polygon fill="#f8f9fa" stroke="#f8f9fa" points="337.14,-1321.97 326.87,-1324.56 336.51,-1328.94 337.14,-1321.97"/>
<text text-anchor="middle" x="483.25" y="-1358.6" font-family="Arial" font-size="12.00" fill="#ffffff">e_automatic</text>
</g>
<!-- s_hallucination_playback -->
<g id="node15" class="node">
<title>s_hallucination_playback</title>
<path fill="#6c757d" stroke="black" d="M329.62,-1251.5C329.62,-1251.5 156.12,-1251.5 156.12,-1251.5 150.12,-1251.5 144.12,-1245.5 144.12,-1239.5 144.12,-1239.5 144.12,-1227.5 144.12,-1227.5 144.12,-1221.5 150.12,-1215.5 156.12,-1215.5 156.12,-1215.5 329.62,-1215.5 329.62,-1215.5 335.62,-1215.5 341.62,-1221.5 341.62,-1227.5 341.62,-1227.5 341.62,-1239.5 341.62,-1239.5 341.62,-1245.5 335.62,-1251.5 329.62,-1251.5"/>
<text text-anchor="middle" x="242.88" y="-1227.67" font-family="Arial" font-size="16.00" fill="#ffffff">s_hallucination_playback</text>
</g>
<!-- s_hallucination_intro&#45;&gt;s_hallucination_playback -->
<g id="edge20" class="edge">
<title>s_hallucination_intro&#45;&gt;s_hallucination_playback</title>
<path fill="none" stroke="#f8f9fa" d="M160.32,-1302.76C142.02,-1295.31 130.85,-1284.62 141.62,-1269.5 144.62,-1265.3 148.15,-1261.59 152.08,-1258.33"/>
<polygon fill="#f8f9fa" stroke="#f8f9fa" points="153.84,-1261.37 159.99,-1252.74 149.8,-1255.65 153.84,-1261.37"/>
<text text-anchor="middle" x="232.75" y="-1272.35" font-family="Arial" font-size="12.00" fill="#ffffff">manual_s_hallucination_playback</text>
</g>
<!-- s_hallucination_intro&#45;&gt;s_hallucination_playback -->
<g id="edge21" class="edge">
<title>s_hallucination_intro&#45;&gt;s_hallucination_playback</title>
<path fill="none" stroke="#f8f9fa" d="M304.92,-1301.41C312.4,-1296.83 319.08,-1291.05 323.88,-1283.75 330.8,-1273.22 326.33,-1264.58 316.67,-1257.65"/>
<polygon fill="#f8f9fa" stroke="#f8f9fa" points="318.71,-1254.78 308.31,-1252.75 315.17,-1260.82 318.71,-1254.78"/>
<text text-anchor="middle" x="359.86" y="-1272.35" font-family="Arial" font-size="12.00" fill="#ffffff">e_automatic</text>
</g>
<!-- s_gaslighting -->
<g id="node14" class="node">
<title>s_gaslighting</title>
<path fill="#6c757d" stroke="black" d="M286.5,-1165.25C286.5,-1165.25 199.25,-1165.25 199.25,-1165.25 193.25,-1165.25 187.25,-1159.25 187.25,-1153.25 187.25,-1153.25 187.25,-1141.25 187.25,-1141.25 187.25,-1135.25 193.25,-1129.25 199.25,-1129.25 199.25,-1129.25 286.5,-1129.25 286.5,-1129.25 292.5,-1129.25 298.5,-1135.25 298.5,-1141.25 298.5,-1141.25 298.5,-1153.25 298.5,-1153.25 298.5,-1159.25 292.5,-1165.25 286.5,-1165.25"/>
<text text-anchor="middle" x="242.88" y="-1141.42" font-family="Arial" font-size="16.00" fill="#ffffff">s_gaslighting</text>
</g>
<!-- s_gaslighting&#45;&gt;s_deepfake_lets_listen -->
<g id="edge18" class="edge">
<title>s_gaslighting&#45;&gt;s_deepfake_lets_listen</title>
<path fill="none" stroke="#f8f9fa" d="M187.04,-1137.66C172.04,-1132.52 157.47,-1124.32 148.38,-1111.25 140.81,-1100.39 144.86,-1091.75 154.61,-1084.94"/>
<polygon fill="#f8f9fa" stroke="#f8f9fa" points="156.16,-1088.09 163.19,-1080.16 152.75,-1081.97 156.16,-1088.09"/>
<text text-anchor="middle" x="233.12" y="-1099.85" font-family="Arial" font-size="12.00" fill="#ffffff">manual_s_deepfake_lets_listen</text>
</g>
<!-- s_gaslighting&#45;&gt;s_deepfake_lets_listen -->
<g id="edge19" class="edge">
<title>s_gaslighting&#45;&gt;s_deepfake_lets_listen</title>
<path fill="none" stroke="#f8f9fa" d="M298.93,-1129.13C306.44,-1124.5 313.17,-1118.64 317.88,-1111.25 324.41,-1100.99 319.98,-1092.41 310.66,-1085.43"/>
<polygon fill="#f8f9fa" stroke="#f8f9fa" points="312.56,-1082.49 302.2,-1080.26 308.91,-1088.46 312.56,-1082.49"/>
<text text-anchor="middle" x="353.61" y="-1099.85" font-family="Arial" font-size="12.00" fill="#ffffff">e_automatic</text>
</g>
<!-- s_hallucination_playback&#45;&gt;s_gaslighting -->
<g id="edge22" class="edge">
<title>s_hallucination_playback&#45;&gt;s_gaslighting</title>
<path fill="none" stroke="#f8f9fa" d="M192.09,-1215.08C184.94,-1210.47 178.54,-1204.69 174.12,-1197.5 167.96,-1187.44 172.44,-1178.84 181.5,-1171.77"/>
<polygon fill="#f8f9fa" stroke="#f8f9fa" points="183.13,-1174.89 189.65,-1166.54 179.35,-1169 183.13,-1174.89"/>
<text text-anchor="middle" x="233" y="-1186.1" font-family="Arial" font-size="12.00" fill="#ffffff">manual_s_gaslighting</text>
</g>
<!-- s_hallucination_playback&#45;&gt;s_gaslighting -->
<g id="edge23" class="edge">
<title>s_hallucination_playback&#45;&gt;s_gaslighting</title>
<path fill="none" stroke="#f8f9fa" d="M276.59,-1215.01C282.75,-1210.21 288.34,-1204.38 291.88,-1197.5 296.5,-1188.52 292.85,-1180.15 285.86,-1172.94"/>
<polygon fill="#f8f9fa" stroke="#f8f9fa" points="288.24,-1170.37 278.34,-1166.59 283.72,-1175.72 288.24,-1170.37"/>
<text text-anchor="middle" x="326.56" y="-1186.1" font-family="Arial" font-size="12.00" fill="#ffffff">e_automatic</text>
</g>
<!-- s_wrongvideo_intro -->
<g id="node21" class="node">
<title>s_wrongvideo_intro</title>
<path fill="#6c757d" stroke="black" d="M363,-820.25C363,-820.25 230.75,-820.25 230.75,-820.25 224.75,-820.25 218.75,-814.25 218.75,-808.25 218.75,-808.25 218.75,-796.25 218.75,-796.25 218.75,-790.25 224.75,-784.25 230.75,-784.25 230.75,-784.25 363,-784.25 363,-784.25 369,-784.25 375,-790.25 375,-796.25 375,-796.25 375,-808.25 375,-808.25 375,-814.25 369,-820.25 363,-820.25"/>
<text text-anchor="middle" x="296.88" y="-796.42" font-family="Arial" font-size="16.00" fill="#ffffff">s_wrongvideo_intro</text>
</g>
<!-- s_mother_been_met&#45;&gt;s_wrongvideo_intro -->
<g id="edge36" class="edge">
<title>s_mother_been_met&#45;&gt;s_wrongvideo_intro</title>
<path fill="none" stroke="#f8f9fa" d="M91.98,-870.14C79.84,-860.69 70.38,-848.8 79.38,-838.25 95.98,-818.76 154.74,-810.08 207,-806.24"/>
<polygon fill="#f8f9fa" stroke="#f8f9fa" points="207.13,-809.74 216.87,-805.57 206.65,-802.75 207.13,-809.74"/>
<text text-anchor="middle" x="155.12" y="-841.1" font-family="Arial" font-size="12.00" fill="#ffffff">manual_s_wrongvideo_intro</text>
</g>
<!-- s_mother_been_met&#45;&gt;s_wrongvideo_intro -->
<g id="edge37" class="edge">
<title>s_mother_been_met&#45;&gt;s_wrongvideo_intro</title>
<path fill="none" stroke="#f8f9fa" d="M188.03,-870.05C202.53,-865.22 217.51,-859.37 230.88,-852.5 243.99,-845.76 257.25,-836.46 268.41,-827.76"/>
<polygon fill="#f8f9fa" stroke="#f8f9fa" points="270.46,-830.6 276.06,-821.6 266.07,-825.14 270.46,-830.6"/>
<text text-anchor="middle" x="286.62" y="-841.1" font-family="Arial" font-size="12.00" fill="#ffffff">e_automatic</text>
</g>
<!-- s_mother_not_met&#45;&gt;s_wrongvideo_intro -->
<g id="edge38" class="edge">
<title>s_mother_not_met&#45;&gt;s_wrongvideo_intro</title>
<path fill="none" stroke="#f8f9fa" d="M349.99,-870.04C340.65,-858.3 328.16,-842.59 317.64,-829.37"/>
<polygon fill="#f8f9fa" stroke="#f8f9fa" points="320.65,-827.52 311.68,-821.87 315.17,-831.87 320.65,-827.52"/>
<text text-anchor="middle" x="410.14" y="-841.1" font-family="Arial" font-size="12.00" fill="#ffffff">manual_s_wrongvideo_intro</text>
</g>
<!-- s_mother_not_met&#45;&gt;s_wrongvideo_intro -->
<g id="edge39" class="edge">
<title>s_mother_not_met&#45;&gt;s_wrongvideo_intro</title>
<path fill="none" stroke="#f8f9fa" d="M439.62,-880.48C476.65,-874.02 509.44,-861.69 489.88,-838.25 476.3,-821.99 430.33,-813.27 386.66,-808.6"/>
<polygon fill="#f8f9fa" stroke="#f8f9fa" points="387.14,-805.13 376.84,-807.62 386.44,-812.09 387.14,-805.13"/>
<text text-anchor="middle" x="528.34" y="-841.1" font-family="Arial" font-size="12.00" fill="#ffffff">e_automatic</text>
</g>
<!-- s_issues_compliment -->
<g id="node18" class="node">
<title>s_issues_compliment</title>
<path fill="#6c757d" stroke="black" d="M323.88,-1596.5C323.88,-1596.5 175.88,-1596.5 175.88,-1596.5 169.88,-1596.5 163.88,-1590.5 163.88,-1584.5 163.88,-1584.5 163.88,-1572.5 163.88,-1572.5 163.88,-1566.5 169.88,-1560.5 175.88,-1560.5 175.88,-1560.5 323.88,-1560.5 323.88,-1560.5 329.88,-1560.5 335.88,-1566.5 335.88,-1572.5 335.88,-1572.5 335.88,-1584.5 335.88,-1584.5 335.88,-1590.5 329.88,-1596.5 323.88,-1596.5"/>
<text text-anchor="middle" x="249.88" y="-1572.67" font-family="Arial" font-size="16.00" fill="#ffffff">s_issues_compliment</text>
</g>
<!-- s_issues_compliment&#45;&gt;s_diary -->
<g id="edge30" class="edge">
<title>s_issues_compliment&#45;&gt;s_diary</title>
<path fill="none" stroke="#f8f9fa" d="M213.27,-1560.03C206.88,-1555.26 201.1,-1549.45 197.38,-1542.5 191.96,-1532.38 197.19,-1523.18 206.13,-1515.54"/>
<polygon fill="#f8f9fa" stroke="#f8f9fa" points="207.9,-1518.57 213.95,-1509.87 203.8,-1512.91 207.9,-1518.57"/>
<text text-anchor="middle" x="240.12" y="-1531.1" font-family="Arial" font-size="12.00" fill="#ffffff">manual_s_diary</text>
</g>
<!-- s_issues_compliment&#45;&gt;s_diary -->
<g id="edge31" class="edge">
<title>s_issues_compliment&#45;&gt;s_diary</title>
<path fill="none" stroke="#f8f9fa" d="M271.04,-1560.16C275.84,-1555.03 280.29,-1549.02 282.88,-1542.5 286.08,-1534.43 283.59,-1526.33 278.81,-1519.09"/>
<polygon fill="#f8f9fa" stroke="#f8f9fa" points="281.76,-1517.18 272.73,-1511.64 276.33,-1521.6 281.76,-1517.18"/>
<text text-anchor="middle" x="316.94" y="-1531.1" font-family="Arial" font-size="12.00" fill="#ffffff">e_automatic</text>
</g>
<!-- s_issues_explore -->
<g id="node19" class="node">
<title>s_issues_explore</title>
<path fill="#6c757d" stroke="black" d="M308.88,-1769C308.88,-1769 190.88,-1769 190.88,-1769 184.88,-1769 178.88,-1763 178.88,-1757 178.88,-1757 178.88,-1745 178.88,-1745 178.88,-1739 184.88,-1733 190.88,-1733 190.88,-1733 308.88,-1733 308.88,-1733 314.88,-1733 320.88,-1739 320.88,-1745 320.88,-1745 320.88,-1757 320.88,-1757 320.88,-1763 314.88,-1769 308.88,-1769"/>
<text text-anchor="middle" x="249.88" y="-1745.17" font-family="Arial" font-size="16.00" fill="#ffffff">s_issues_explore</text>
</g>
<!-- s_issues_resolve -->
<g id="node20" class="node">
<title>s_issues_resolve</title>
<path fill="#6c757d" stroke="black" d="M308.5,-1682.75C308.5,-1682.75 191.25,-1682.75 191.25,-1682.75 185.25,-1682.75 179.25,-1676.75 179.25,-1670.75 179.25,-1670.75 179.25,-1658.75 179.25,-1658.75 179.25,-1652.75 185.25,-1646.75 191.25,-1646.75 191.25,-1646.75 308.5,-1646.75 308.5,-1646.75 314.5,-1646.75 320.5,-1652.75 320.5,-1658.75 320.5,-1658.75 320.5,-1670.75 320.5,-1670.75 320.5,-1676.75 314.5,-1682.75 308.5,-1682.75"/>
<text text-anchor="middle" x="249.88" y="-1658.92" font-family="Arial" font-size="16.00" fill="#ffffff">s_issues_resolve</text>
</g>
<!-- s_issues_explore&#45;&gt;s_issues_resolve -->
<g id="edge32" class="edge">
<title>s_issues_explore&#45;&gt;s_issues_resolve</title>
<path fill="none" stroke="#f8f9fa" d="M189.34,-1732.72C181.85,-1728.13 175.15,-1722.33 170.38,-1715 163.51,-1704.48 168.06,-1695.82 177.74,-1688.86"/>
<polygon fill="#f8f9fa" stroke="#f8f9fa" points="179.26,-1692.03 186.1,-1683.94 175.71,-1685.99 179.26,-1692.03"/>
<text text-anchor="middle" x="240.12" y="-1703.6" font-family="Arial" font-size="12.00" fill="#ffffff">manual_s_issues_resolve</text>
</g>
<!-- s_issues_explore&#45;&gt;s_issues_resolve -->
<g id="edge33" class="edge">
<title>s_issues_explore&#45;&gt;s_issues_resolve</title>
<path fill="none" stroke="#f8f9fa" d="M292.82,-1732.6C299.64,-1727.91 305.79,-1722.11 309.88,-1715 315.36,-1705.45 311.23,-1696.97 303.05,-1689.86"/>
<polygon fill="#f8f9fa" stroke="#f8f9fa" points="305.15,-1687.06 294.97,-1684.1 301.08,-1692.75 305.15,-1687.06"/>
<text text-anchor="middle" x="345" y="-1703.6" font-family="Arial" font-size="12.00" fill="#ffffff">e_automatic</text>
</g>
<!-- s_issues_resolve&#45;&gt;s_issues_compliment -->
<g id="edge34" class="edge">
<title>s_issues_resolve&#45;&gt;s_issues_compliment</title>
<path fill="none" stroke="#f8f9fa" d="M178.98,-1646.84C171.09,-1642.2 164.05,-1636.28 158.88,-1628.75 151.48,-1617.98 155.63,-1609.36 165.35,-1602.53"/>
<polygon fill="#f8f9fa" stroke="#f8f9fa" points="166.88,-1605.69 173.87,-1597.73 163.44,-1599.59 166.88,-1605.69"/>
<text text-anchor="middle" x="239.88" y="-1617.35" font-family="Arial" font-size="12.00" fill="#ffffff">manual_s_issues_compliment</text>
</g>
<!-- s_issues_resolve&#45;&gt;s_issues_compliment -->
<g id="edge35" class="edge">
<title>s_issues_resolve&#45;&gt;s_issues_compliment</title>
<path fill="none" stroke="#f8f9fa" d="M303.96,-1646.29C318.94,-1638.36 329.11,-1627.75 320.88,-1614.5 318.34,-1610.43 315.18,-1606.82 311.62,-1603.62"/>
<polygon fill="#f8f9fa" stroke="#f8f9fa" points="313.95,-1601 303.86,-1597.78 309.74,-1606.59 313.95,-1601"/>
<text text-anchor="middle" x="356.44" y="-1617.35" font-family="Arial" font-size="12.00" fill="#ffffff">e_automatic</text>
</g>
<!-- s_wrongvideo_playback_1 -->
<g id="node30" class="node">
<title>s_wrongvideo_playback_1</title>
<path fill="#6c757d" stroke="black" d="M388.5,-734C388.5,-734 205.25,-734 205.25,-734 199.25,-734 193.25,-728 193.25,-722 193.25,-722 193.25,-710 193.25,-710 193.25,-704 199.25,-698 205.25,-698 205.25,-698 388.5,-698 388.5,-698 394.5,-698 400.5,-704 400.5,-710 400.5,-710 400.5,-722 400.5,-722 400.5,-728 394.5,-734 388.5,-734"/>
<text text-anchor="middle" x="296.88" y="-710.17" font-family="Arial" font-size="16.00" fill="#ffffff">s_wrongvideo_playback_1</text>
</g>
<!-- s_wrongvideo_intro&#45;&gt;s_wrongvideo_playback_1 -->
<g id="edge54" class="edge">
<title>s_wrongvideo_intro&#45;&gt;s_wrongvideo_playback_1</title>
<path fill="none" stroke="#f8f9fa" d="M218.26,-787.41C208.02,-782.35 198.79,-775.51 192.12,-766.25 184.18,-755.21 187.75,-746.57 197.31,-739.83"/>
<polygon fill="#f8f9fa" stroke="#f8f9fa" points="198.75,-743.03 205.79,-735.11 195.35,-736.91 198.75,-743.03"/>
<text text-anchor="middle" x="287" y="-754.85" font-family="Arial" font-size="12.00" fill="#ffffff">manual_s_wrongvideo_playback_1</text>
</g>
<!-- s_wrongvideo_intro&#45;&gt;s_wrongvideo_playback_1 -->
<g id="edge55" class="edge">
<title>s_wrongvideo_intro&#45;&gt;s_wrongvideo_playback_1</title>
<path fill="none" stroke="#f8f9fa" d="M365.17,-783.76C381.11,-776.15 391.08,-765.75 381.88,-752 379.13,-747.9 375.8,-744.28 372.08,-741.08"/>
<polygon fill="#f8f9fa" stroke="#f8f9fa" points="374.14,-738.25 363.99,-735.24 370.05,-743.93 374.14,-738.25"/>
<text text-anchor="middle" x="418.02" y="-754.85" font-family="Arial" font-size="12.00" fill="#ffffff">e_automatic</text>
</g>
<!-- s_smalltalk -->
<g id="node22" class="node">
<title>s_smalltalk</title>
<path fill="#6c757d" stroke="black" d="M286.38,-1855.25C286.38,-1855.25 213.38,-1855.25 213.38,-1855.25 207.38,-1855.25 201.38,-1849.25 201.38,-1843.25 201.38,-1843.25 201.38,-1831.25 201.38,-1831.25 201.38,-1825.25 207.38,-1819.25 213.38,-1819.25 213.38,-1819.25 286.38,-1819.25 286.38,-1819.25 292.38,-1819.25 298.38,-1825.25 298.38,-1831.25 298.38,-1831.25 298.38,-1843.25 298.38,-1843.25 298.38,-1849.25 292.38,-1855.25 286.38,-1855.25"/>
<text text-anchor="middle" x="249.88" y="-1831.42" font-family="Arial" font-size="16.00" fill="#ffffff">s_smalltalk</text>
</g>
<!-- s_smalltalk&#45;&gt;s_issues_explore -->
<g id="edge40" class="edge">
<title>s_smalltalk&#45;&gt;s_issues_explore</title>
<path fill="none" stroke="#f8f9fa" d="M201.02,-1825.27C188.73,-1820.07 176.95,-1812.44 169.62,-1801.25 162.7,-1790.67 167.28,-1781.99 177.05,-1775.03"/>
<polygon fill="#f8f9fa" stroke="#f8f9fa" points="178.63,-1778.16 185.51,-1770.1 175.11,-1772.11 178.63,-1778.16"/>
<text text-anchor="middle" x="239.75" y="-1789.85" font-family="Arial" font-size="12.00" fill="#ffffff">manual_s_issues_explore</text>
</g>
<!-- s_smalltalk&#45;&gt;s_issues_explore -->
<g id="edge41" class="edge">
<title>s_smalltalk&#45;&gt;s_issues_explore</title>
<path fill="none" stroke="#f8f9fa" d="M292.82,-1818.85C299.64,-1814.16 305.79,-1808.36 309.88,-1801.25 315.36,-1791.7 311.23,-1783.22 303.05,-1776.11"/>
<polygon fill="#f8f9fa" stroke="#f8f9fa" points="305.15,-1773.31 294.97,-1770.35 301.08,-1779 305.15,-1773.31"/>
<text text-anchor="middle" x="345" y="-1789.85" font-family="Arial" font-size="12.00" fill="#ffffff">e_automatic</text>
</g>
<!-- s_start&#45;&gt;s_smalltalk -->
<g id="edge42" class="edge">
<title>s_start&#45;&gt;s_smalltalk</title>
<path fill="none" stroke="#f8f9fa" d="M217.32,-1912.05C196.94,-1903.6 176.3,-1890.31 186.38,-1873.25 188.69,-1869.34 191.61,-1865.83 194.92,-1862.7"/>
<polygon fill="#f8f9fa" stroke="#f8f9fa" points="196.98,-1865.53 202.66,-1856.59 192.64,-1860.04 196.98,-1865.53"/>
<text text-anchor="middle" x="239.62" y="-1876.1" font-family="Arial" font-size="12.00" fill="#ffffff">manual_s_smalltalk</text>
</g>
<!-- s_start&#45;&gt;s_smalltalk -->
<g id="edge43" class="edge">
<title>s_start&#45;&gt;s_smalltalk</title>
<path fill="none" stroke="#f8f9fa" d="M278.66,-1905.1C284.4,-1900.18 289.65,-1894.28 292.88,-1887.5 296.94,-1878.95 293.79,-1870.75 287.71,-1863.57"/>
<polygon fill="#f8f9fa" stroke="#f8f9fa" points="290.19,-1861.11 280.55,-1856.71 285.34,-1866.16 290.19,-1861.11"/>
<text text-anchor="middle" x="327.33" y="-1876.1" font-family="Arial" font-size="12.00" fill="#ffffff">e_automatic</text>
</g>
<!-- s_therapy_is_difficult -->
<g id="node24" class="node">
<title>s_therapy_is_difficult</title>
<path fill="#6c757d" stroke="black" d="M444,-302.75C444,-302.75 299.75,-302.75 299.75,-302.75 293.75,-302.75 287.75,-296.75 287.75,-290.75 287.75,-290.75 287.75,-278.75 287.75,-278.75 287.75,-272.75 293.75,-266.75 299.75,-266.75 299.75,-266.75 444,-266.75 444,-266.75 450,-266.75 456,-272.75 456,-278.75 456,-278.75 456,-290.75 456,-290.75 456,-296.75 450,-302.75 444,-302.75"/>
<text text-anchor="middle" x="371.88" y="-278.93" font-family="Arial" font-size="16.00" fill="#ffffff">s_therapy_is_difficult</text>
</g>
<!-- s_therapy_is_difficult&#45;&gt;s_back_to_normal -->
<g id="edge44" class="edge">
<title>s_therapy_is_difficult&#45;&gt;s_back_to_normal</title>
<path fill="none" stroke="#f8f9fa" d="M308.11,-266.37C300.63,-261.8 293.95,-256.03 289.12,-248.75 282.05,-238.08 286.61,-229.39 296.48,-222.44"/>
<polygon fill="#f8f9fa" stroke="#f8f9fa" points="298.11,-225.54 305.05,-217.54 294.63,-219.47 298.11,-225.54"/>
<text text-anchor="middle" x="361.5" y="-237.35" font-family="Arial" font-size="12.00" fill="#ffffff">manual_s_back_to_normal</text>
</g>
<!-- s_therapy_is_difficult&#45;&gt;s_back_to_normal -->
<g id="edge45" class="edge">
<title>s_therapy_is_difficult&#45;&gt;s_back_to_normal</title>
<path fill="none" stroke="#f8f9fa" d="M417.59,-266.26C431.5,-258.09 441.36,-247.32 433.88,-234.5 431.59,-230.59 428.69,-227.08 425.4,-223.94"/>
<polygon fill="#f8f9fa" stroke="#f8f9fa" points="427.71,-221.31 417.71,-217.81 423.35,-226.78 427.71,-221.31"/>
<text text-anchor="middle" x="469.08" y="-237.35" font-family="Arial" font-size="12.00" fill="#ffffff">e_automatic</text>
</g>
<!-- s_wrongvideo_accusation -->
<g id="node25" class="node">
<title>s_wrongvideo_accusation</title>
<path fill="#6c757d" stroke="black" d="M386.25,-475.25C386.25,-475.25 207.5,-475.25 207.5,-475.25 201.5,-475.25 195.5,-469.25 195.5,-463.25 195.5,-463.25 195.5,-451.25 195.5,-451.25 195.5,-445.25 201.5,-439.25 207.5,-439.25 207.5,-439.25 386.25,-439.25 386.25,-439.25 392.25,-439.25 398.25,-445.25 398.25,-451.25 398.25,-451.25 398.25,-463.25 398.25,-463.25 398.25,-469.25 392.25,-475.25 386.25,-475.25"/>
<text text-anchor="middle" x="296.88" y="-451.43" font-family="Arial" font-size="16.00" fill="#ffffff">s_wrongvideo_accusation</text>
</g>
<!-- s_wrongvideo_user_did_admit -->
<g id="node26" class="node">
<title>s_wrongvideo_user_did_admit</title>
<path fill="#6c757d" stroke="black" d="M255.75,-389C255.75,-389 44,-389 44,-389 38,-389 32,-383 32,-377 32,-377 32,-365 32,-365 32,-359 38,-353 44,-353 44,-353 255.75,-353 255.75,-353 261.75,-353 267.75,-359 267.75,-365 267.75,-365 267.75,-377 267.75,-377 267.75,-383 261.75,-389 255.75,-389"/>
<text text-anchor="middle" x="149.88" y="-365.18" font-family="Arial" font-size="16.00" fill="#ffffff">s_wrongvideo_user_did_admit</text>
</g>
<!-- s_wrongvideo_accusation&#45;&gt;s_wrongvideo_user_did_admit -->
<g id="edge48" class="edge">
<title>s_wrongvideo_accusation&#45;&gt;s_wrongvideo_user_did_admit</title>
<path fill="none" stroke="#f8f9fa" d="M195.11,-449.85C121.09,-444.13 31.87,-434.58 20.12,-421.25 10.33,-410.14 12.72,-401.52 22.02,-394.84"/>
<polygon fill="#f8f9fa" stroke="#f8f9fa" points="23.42,-398.07 30.5,-390.19 20.05,-391.93 23.42,-398.07"/>
<text text-anchor="middle" x="125.5" y="-409.85" font-family="Arial" font-size="12.00" fill="#ffffff">manual_s_wrongvideo_user_did_admit</text>
</g>
<!-- s_wrongvideo_accusation&#45;&gt;s_wrongvideo_user_did_admit -->
<g id="edge50" class="edge">
<title>s_wrongvideo_accusation&#45;&gt;s_wrongvideo_user_did_admit</title>
<path fill="none" stroke="#f8f9fa" d="M276.34,-438.97C263.73,-428.86 246.96,-416.31 230.88,-407 222.96,-402.42 214.32,-398.07 205.74,-394.1"/>
<polygon fill="#f8f9fa" stroke="#f8f9fa" points="207.29,-390.95 196.73,-390.06 204.43,-397.34 207.29,-390.95"/>
<text text-anchor="middle" x="284.4" y="-409.85" font-family="Arial" font-size="12.00" fill="#ffffff">e_automatic</text>
</g>
<!-- s_wrongvideo_user_didnt_admit -->
<g id="node27" class="node">
<title>s_wrongvideo_user_didnt_admit</title>
<path fill="#6c757d" stroke="black" d="M556.5,-389C556.5,-389 331.25,-389 331.25,-389 325.25,-389 319.25,-383 319.25,-377 319.25,-377 319.25,-365 319.25,-365 319.25,-359 325.25,-353 331.25,-353 331.25,-353 556.5,-353 556.5,-353 562.5,-353 568.5,-359 568.5,-365 568.5,-365 568.5,-377 568.5,-377 568.5,-383 562.5,-389 556.5,-389"/>
<text text-anchor="middle" x="443.88" y="-365.18" font-family="Arial" font-size="16.00" fill="#ffffff">s_wrongvideo_user_didnt_admit</text>
</g>
<!-- s_wrongvideo_accusation&#45;&gt;s_wrongvideo_user_didnt_admit -->
<g id="edge49" class="edge">
<title>s_wrongvideo_accusation&#45;&gt;s_wrongvideo_user_didnt_admit</title>
<path fill="none" stroke="#f8f9fa" d="M309.13,-439.17C317.46,-428.62 329.31,-415.53 342.38,-407 350.03,-402 358.48,-397.63 367.14,-393.84"/>
<polygon fill="#f8f9fa" stroke="#f8f9fa" points="368.43,-397.09 376.36,-390.06 365.78,-390.61 368.43,-397.09"/>
<text text-anchor="middle" x="452.62" y="-409.85" font-family="Arial" font-size="12.00" fill="#ffffff">manual_s_wrongvideo_user_didnt_admit</text>
</g>
<!-- s_wrongvideo_accusation&#45;&gt;s_wrongvideo_user_didnt_admit -->
<g id="edge51" class="edge">
<title>s_wrongvideo_accusation&#45;&gt;s_wrongvideo_user_didnt_admit</title>
<path fill="none" stroke="#f8f9fa" d="M398.69,-456.28C464.39,-453.87 541.45,-445.68 562.88,-421.25 572.67,-410.09 569.37,-401.4 559.12,-394.66"/>
<polygon fill="#f8f9fa" stroke="#f8f9fa" points="560.84,-391.61 550.35,-390.14 557.63,-397.83 560.84,-391.61"/>
<text text-anchor="middle" x="601.34" y="-409.85" font-family="Arial" font-size="12.00" fill="#ffffff">e_automatic</text>
</g>
<!-- s_wrongvideo_user_did_admit&#45;&gt;s_therapy_is_difficult -->
<g id="edge60" class="edge">
<title>s_wrongvideo_user_did_admit&#45;&gt;s_therapy_is_difficult</title>
<path fill="none" stroke="#f8f9fa" d="M143.27,-352.57C140.55,-342.16 139.52,-329.34 146.88,-320.75 163.8,-300.99 222.81,-292.3 276.15,-288.51"/>
<polygon fill="#f8f9fa" stroke="#f8f9fa" points="276.17,-292.02 285.92,-287.88 275.71,-285.03 276.17,-292.02"/>
<text text-anchor="middle" x="226.38" y="-323.6" font-family="Arial" font-size="12.00" fill="#ffffff">manual_s_therapy_is_difficult</text>
</g>
<!-- s_wrongvideo_user_did_admit&#45;&gt;s_therapy_is_difficult -->
<g id="edge61" class="edge">
<title>s_wrongvideo_user_did_admit&#45;&gt;s_therapy_is_difficult</title>
<path fill="none" stroke="#f8f9fa" d="M255.92,-352.55C273.03,-347.95 290.24,-342.19 305.88,-335 319.47,-328.75 332.99,-319.37 344.21,-310.48"/>
<polygon fill="#f8f9fa" stroke="#f8f9fa" points="346.39,-313.21 351.89,-304.16 341.94,-307.81 346.39,-313.21"/>
<text text-anchor="middle" x="361.91" y="-323.6" font-family="Arial" font-size="12.00" fill="#ffffff">e_automatic</text>
</g>
<!-- s_wrongvideo_user_didnt_admit&#45;&gt;s_therapy_is_difficult -->
<g id="edge62" class="edge">
<title>s_wrongvideo_user_didnt_admit&#45;&gt;s_therapy_is_difficult</title>
<path fill="none" stroke="#f8f9fa" d="M428.96,-352.54C418.92,-340.8 405.5,-325.09 394.19,-311.87"/>
<polygon fill="#f8f9fa" stroke="#f8f9fa" points="396.92,-309.66 387.76,-304.33 391.59,-314.21 396.92,-309.66"/>
<text text-anchor="middle" x="491.69" y="-323.6" font-family="Arial" font-size="12.00" fill="#ffffff">manual_s_therapy_is_difficult</text>
</g>
<!-- s_wrongvideo_user_didnt_admit&#45;&gt;s_therapy_is_difficult -->
<g id="edge63" class="edge">
<title>s_wrongvideo_user_didnt_admit&#45;&gt;s_therapy_is_difficult</title>
<path fill="none" stroke="#f8f9fa" d="M563.82,-352.56C579.79,-345.35 587.01,-335.15 574.88,-320.75 560.67,-303.88 513.03,-295.14 467.48,-290.62"/>
<polygon fill="#f8f9fa" stroke="#f8f9fa" points="468.06,-287.16 457.78,-289.72 467.41,-294.13 468.06,-287.16"/>
<text text-anchor="middle" x="613.57" y="-323.6" font-family="Arial" font-size="12.00" fill="#ffffff">e_automatic</text>
</g>
<!-- s_wrongvideo_apology -->
<g id="node28" class="node">
<title>s_wrongvideo_apology</title>
<path fill="#6c757d" stroke="black" d="M375.75,-647.75C375.75,-647.75 218,-647.75 218,-647.75 212,-647.75 206,-641.75 206,-635.75 206,-635.75 206,-623.75 206,-623.75 206,-617.75 212,-611.75 218,-611.75 218,-611.75 375.75,-611.75 375.75,-611.75 381.75,-611.75 387.75,-617.75 387.75,-623.75 387.75,-623.75 387.75,-635.75 387.75,-635.75 387.75,-641.75 381.75,-647.75 375.75,-647.75"/>
<text text-anchor="middle" x="296.88" y="-623.92" font-family="Arial" font-size="16.00" fill="#ffffff">s_wrongvideo_apology</text>
</g>
<!-- s_wrongvideo_playback_2 -->
<g id="node29" class="node">
<title>s_wrongvideo_playback_2</title>
<path fill="#6c757d" stroke="black" d="M388.5,-561.5C388.5,-561.5 205.25,-561.5 205.25,-561.5 199.25,-561.5 193.25,-555.5 193.25,-549.5 193.25,-549.5 193.25,-537.5 193.25,-537.5 193.25,-531.5 199.25,-525.5 205.25,-525.5 205.25,-525.5 388.5,-525.5 388.5,-525.5 394.5,-525.5 400.5,-531.5 400.5,-537.5 400.5,-537.5 400.5,-549.5 400.5,-549.5 400.5,-555.5 394.5,-561.5 388.5,-561.5"/>
<text text-anchor="middle" x="296.88" y="-537.67" font-family="Arial" font-size="16.00" fill="#ffffff">s_wrongvideo_playback_2</text>
</g>
<!-- s_wrongvideo_apology&#45;&gt;s_wrongvideo_playback_2 -->
<g id="edge52" class="edge">
<title>s_wrongvideo_apology&#45;&gt;s_wrongvideo_playback_2</title>
<path fill="none" stroke="#f8f9fa" d="M207.12,-611.37C190.83,-604.04 181.85,-593.77 192.12,-579.5 195.17,-575.27 198.75,-571.55 202.71,-568.27"/>
<polygon fill="#f8f9fa" stroke="#f8f9fa" points="204.55,-571.26 210.71,-562.64 200.52,-565.53 204.55,-571.26"/>
<text text-anchor="middle" x="287" y="-582.35" font-family="Arial" font-size="12.00" fill="#ffffff">manual_s_wrongvideo_playback_2</text>
</g>
<!-- s_wrongvideo_apology&#45;&gt;s_wrongvideo_playback_2 -->
<g id="edge53" class="edge">
<title>s_wrongvideo_apology&#45;&gt;s_wrongvideo_playback_2</title>
<path fill="none" stroke="#f8f9fa" d="M365.17,-611.26C381.11,-603.65 391.08,-593.25 381.88,-579.5 379.13,-575.4 375.8,-571.78 372.08,-568.58"/>
<polygon fill="#f8f9fa" stroke="#f8f9fa" points="374.14,-565.75 363.99,-562.74 370.05,-571.43 374.14,-565.75"/>
<text text-anchor="middle" x="418.02" y="-582.35" font-family="Arial" font-size="12.00" fill="#ffffff">e_automatic</text>
</g>
<!-- s_wrongvideo_playback_2&#45;&gt;s_wrongvideo_accusation -->
<g id="edge58" class="edge">
<title>s_wrongvideo_playback_2&#45;&gt;s_wrongvideo_accusation</title>
<path fill="none" stroke="#f8f9fa" d="M213.35,-525.03C205.79,-520.46 199.04,-514.72 193.88,-507.5 186.02,-496.53 189.62,-487.92 199.14,-481.18"/>
<polygon fill="#f8f9fa" stroke="#f8f9fa" points="200.56,-484.4 207.58,-476.46 197.14,-478.29 200.56,-484.4"/>
<text text-anchor="middle" x="286.88" y="-496.1" font-family="Arial" font-size="12.00" fill="#ffffff">manual_s_wrongvideo_accusation</text>
</g>
<!-- s_wrongvideo_playback_2&#45;&gt;s_wrongvideo_accusation -->
<g id="edge59" class="edge">
<title>s_wrongvideo_playback_2&#45;&gt;s_wrongvideo_accusation</title>
<path fill="none" stroke="#f8f9fa" d="M360.83,-525.15C368.34,-520.58 375.03,-514.8 379.88,-507.5 386.9,-496.92 382.49,-488.28 372.79,-481.37"/>
<polygon fill="#f8f9fa" stroke="#f8f9fa" points="374.79,-478.48 364.38,-476.5 371.28,-484.54 374.79,-478.48"/>
<text text-anchor="middle" x="415.94" y="-496.1" font-family="Arial" font-size="12.00" fill="#ffffff">e_automatic</text>
</g>
<!-- s_wrongvideo_playback_1&#45;&gt;s_wrongvideo_apology -->
<g id="edge56" class="edge">
<title>s_wrongvideo_playback_1&#45;&gt;s_wrongvideo_apology</title>
<path fill="none" stroke="#f8f9fa" d="M220.31,-697.6C212.72,-693.03 205.96,-687.27 200.88,-680 193.27,-669.14 197.21,-660.52 206.89,-653.73"/>
<polygon fill="#f8f9fa" stroke="#f8f9fa" points="208.39,-656.9 215.41,-648.97 204.97,-650.79 208.39,-656.9"/>
<text text-anchor="middle" x="286.38" y="-668.6" font-family="Arial" font-size="12.00" fill="#ffffff">manual_s_wrongvideo_apology</text>
</g>
<!-- s_wrongvideo_playback_1&#45;&gt;s_wrongvideo_apology -->
<g id="edge57" class="edge">
<title>s_wrongvideo_playback_1&#45;&gt;s_wrongvideo_apology</title>
<path fill="none" stroke="#f8f9fa" d="M353.3,-697.65C360.66,-693.06 367.24,-687.27 371.88,-680 378.41,-669.74 373.98,-661.16 364.66,-654.18"/>
<polygon fill="#f8f9fa" stroke="#f8f9fa" points="366.56,-651.24 356.2,-649.01 362.91,-657.21 366.56,-651.24"/>
<text text-anchor="middle" x="407.61" y="-668.6" font-family="Arial" font-size="12.00" fill="#ffffff">e_automatic</text>
</g>
</g>
</svg>
