<?xml version="1.0" encoding="UTF-8" standalone="no"?>
<!DOCTYPE svg PUBLIC "-//W3C//DTD SVG 1.1//EN"
 "http://www.w3.org/Graphics/SVG/1.1/DTD/svg11.dtd">
<!-- Generated by graphviz version 12.1.0 (20240811.2233)
 -->
<!-- Title: list Pages: 1 -->
<svg width="20729pt" height="36864pt"
 viewBox="0.00 0.00 20728.65 36864.00" xmlns="http://www.w3.org/2000/svg" xmlns:xlink="http://www.w3.org/1999/xlink">
<g id="graph0" class="graph" transform="scale(72.2257 72.2257) rotate(0) translate(4 506.4)">
<title>list</title>
<polygon fill="#212529" stroke="none" points="-4,4 -4,-506.4 283,-506.4 283,4 -4,4"/>
<text text-anchor="start" x="15.37" y="-482.3" font-family="Arial" font-weight="bold" font-size="18.00" fill="#ffffff">Character:</text>
<text text-anchor="start" x="103.87" y="-482.3" font-family="Arial" font-size="18.00" fill="#ffffff"> Dr. Stanley Regular</text>
<text text-anchor="start" x="12" y="-464.3" font-family="Arial" font-weight="bold" font-size="18.00" fill="#ffffff">Behavior:</text>
<text text-anchor="start" x="94.5" y="-464.3" font-family="Arial" font-size="18.00" fill="#ffffff"> &#160;b_dream_discussion</text>
<!-- i -->
<g id="node1" class="node">
<title>i</title>
<ellipse fill="black" stroke="black" cx="52.37" cy="-451.2" rx="7.2" ry="7.2"/>
<text text-anchor="middle" x="52.37" y="-450.9" font-family="Times,serif" font-size="1.00">i</text>
</g>
<!-- s_init -->
<g id="node2" class="node">
<title>s_init</title>
<path fill="#6c757d" stroke="black" d="M68.25,-407C68.25,-407 36.5,-407 36.5,-407 30.5,-407 24.5,-401 24.5,-395 24.5,-395 24.5,-383 24.5,-383 24.5,-377 30.5,-371 36.5,-371 36.5,-371 68.25,-371 68.25,-371 74.25,-371 80.25,-377 80.25,-383 80.25,-383 80.25,-395 80.25,-395 80.25,-401 74.25,-407 68.25,-407"/>
<text text-anchor="middle" x="52.37" y="-382.4" font-family="Arial" font-size="18.00" fill="#ffffff">S init</text>
</g>
<!-- i&#45;&gt;s_init -->
<g id="edge1" class="edge">
<title>i&#45;&gt;s_init</title>
<path fill="none" stroke="#f8f9fa" d="M52.37,-443.76C52.37,-437.7 52.37,-428.19 52.37,-418.84"/>
<polygon fill="#f8f9fa" stroke="#f8f9fa" points="55.87,-418.88 52.37,-408.88 48.87,-418.88 55.87,-418.88"/>
</g>
<!-- s_start -->
<g id="node6" class="node">
<title>s_start</title>
<path fill="#6c757d" stroke="black" d="M74.62,-316.25C74.62,-316.25 30.12,-316.25 30.12,-316.25 24.12,-316.25 18.12,-310.25 18.12,-304.25 18.12,-304.25 18.12,-292.25 18.12,-292.25 18.12,-286.25 24.12,-280.25 30.12,-280.25 30.12,-280.25 74.62,-280.25 74.62,-280.25 80.62,-280.25 86.62,-286.25 86.62,-292.25 86.62,-292.25 86.62,-304.25 86.62,-304.25 86.62,-310.25 80.62,-316.25 74.62,-316.25"/>
<text text-anchor="middle" x="52.37" y="-291.65" font-family="Arial" font-size="18.00" fill="#ffffff">S start</text>
</g>
<!-- s_init&#45;&gt;s_start -->
<g id="edge6" class="edge">
<title>s_init&#45;&gt;s_start</title>
<path fill="none" stroke="#f8f9fa" d="M52.37,-370.89C52.37,-358.69 52.37,-342 52.37,-327.8"/>
<polygon fill="#f8f9fa" stroke="#f8f9fa" points="55.87,-328.13 52.37,-318.13 48.87,-328.13 55.87,-328.13"/>
<text text-anchor="middle" x="71.87" y="-337.8" font-family="Arial" font-size="16.00" fill="#ffffff">e_init</text>
</g>
<!-- s_dynamic -->
<g id="node3" class="node">
<title>s_dynamic</title>
<path fill="#007bff" stroke="black" stroke-width="2" d="M90,-225.5C90,-225.5 14.75,-225.5 14.75,-225.5 8.75,-225.5 2.75,-219.5 2.75,-213.5 2.75,-213.5 2.75,-201.5 2.75,-201.5 2.75,-195.5 8.75,-189.5 14.75,-189.5 14.75,-189.5 90,-189.5 90,-189.5 96,-189.5 102,-195.5 102,-201.5 102,-201.5 102,-213.5 102,-213.5 102,-219.5 96,-225.5 90,-225.5"/>
<text text-anchor="middle" x="52.37" y="-200.9" font-family="Arial" font-size="18.00" fill="#ffffff">S dynamic</text>
</g>
<!-- s_dynamic&#45;&gt;s_dynamic -->
<g id="edge2" class="edge">
<title>s_dynamic&#45;&gt;s_dynamic</title>
<path fill="none" stroke="#f8f9fa" d="M102.8,-211.58C112.84,-211.12 120,-209.76 120,-207.5 120,-206.23 117.73,-205.24 113.97,-204.54"/>
<polygon fill="#f8f9fa" stroke="#f8f9fa" points="114.61,-201.09 104.31,-203.57 113.91,-208.05 114.61,-201.09"/>
<text text-anchor="middle" x="159.75" y="-201.68" font-family="Arial" font-size="16.00" fill="#ffffff">e_advance</text>
</g>
<!-- s_dynamic&#45;&gt;s_dynamic -->
<g id="edge4" class="edge">
<title>s_dynamic&#45;&gt;s_dynamic</title>
<path fill="none" stroke="#f8f9fa" d="M102.95,-215.05C146.59,-217.59 199.5,-215.08 199.5,-207.5 199.5,-200.57 155.29,-197.88 114.36,-199.41"/>
<polygon fill="#f8f9fa" stroke="#f8f9fa" points="114.28,-195.91 104.46,-199.88 114.61,-202.9 114.28,-195.91"/>
<text text-anchor="middle" x="230.25" y="-201.68" font-family="Arial" font-size="16.00" fill="#ffffff">e_speak</text>
</g>
<!-- s_stop -->
<g id="node4" class="node">
<title>s_stop</title>
<path fill="#6c757d" stroke="black" d="M73.87,-134.75C73.87,-134.75 30.87,-134.75 30.87,-134.75 24.87,-134.75 18.87,-128.75 18.87,-122.75 18.87,-122.75 18.87,-110.75 18.87,-110.75 18.87,-104.75 24.87,-98.75 30.87,-98.75 30.87,-98.75 73.87,-98.75 73.87,-98.75 79.87,-98.75 85.87,-104.75 85.87,-110.75 85.87,-110.75 85.87,-122.75 85.87,-122.75 85.87,-128.75 79.87,-134.75 73.87,-134.75"/>
<text text-anchor="middle" x="52.37" y="-110.15" font-family="Arial" font-size="18.00" fill="#ffffff">S stop</text>
</g>
<!-- s_dynamic&#45;&gt;s_stop -->
<g id="edge3" class="edge">
<title>s_dynamic&#45;&gt;s_stop</title>
<path fill="none" stroke="#f8f9fa" d="M17.82,-188.68C11.8,-183.94 6.36,-178.23 2.87,-171.5 -0.96,-164.1 -0.96,-160.15 2.87,-152.75 4.8,-149.03 7.33,-145.61 10.22,-142.51"/>
<polygon fill="#f8f9fa" stroke="#f8f9fa" points="12.36,-145.29 17.45,-136 7.67,-140.09 12.36,-145.29"/>
<text text-anchor="middle" x="42.62" y="-156.3" font-family="Arial" font-size="16.00" fill="#ffffff">e_advance</text>
</g>
<!-- s_dynamic&#45;&gt;s_stop -->
<g id="edge5" class="edge">
<title>s_dynamic&#45;&gt;s_stop</title>
<path fill="none" stroke="#f8f9fa" d="M71.96,-188.5C76.2,-183.46 80.1,-177.65 82.37,-171.5 85.26,-163.68 85.26,-160.57 82.37,-152.75 81.29,-149.83 79.84,-146.98 78.17,-144.26"/>
<polygon fill="#f8f9fa" stroke="#f8f9fa" points="80.99,-142.19 72.23,-136.23 75.36,-146.35 80.99,-142.19"/>
<text text-anchor="middle" x="108.92" y="-156.3" font-family="Arial" font-size="16.00" fill="#ffffff">e_stop</text>
</g>
<!-- s_stop&#45;&gt;s_stop -->
<g id="edge10" class="edge">
<title>s_stop&#45;&gt;s_stop</title>
<path fill="none" stroke="#f8f9fa" d="M86.05,-125.24C96.08,-124.99 103.87,-122.16 103.87,-116.75 103.87,-113.62 101.27,-111.36 97.13,-109.96"/>
<polygon fill="#f8f9fa" stroke="#f8f9fa" points="97.97,-106.54 87.55,-108.49 96.91,-113.46 97.97,-106.54"/>
<text text-anchor="middle" x="134.62" y="-110.92" font-family="Arial" font-size="16.00" fill="#ffffff">e_speak</text>
</g>
<!-- s_final -->
<g id="node5" class="node">
<title>s_final</title>
<path fill="#6c757d" stroke="black" d="M73.12,-40C73.12,-40 31.62,-40 31.62,-40 25.62,-40 19.62,-34 19.62,-28 19.62,-28 19.62,-16 19.62,-16 19.62,-10 25.62,-4 31.62,-4 31.62,-4 73.12,-4 73.12,-4 79.12,-4 85.12,-10 85.12,-16 85.12,-16 85.12,-28 85.12,-28 85.12,-34 79.12,-40 73.12,-40"/>
<path fill="none" stroke="black" d="M77.12,-44C77.12,-44 27.62,-44 27.62,-44 21.62,-44 15.62,-38 15.62,-32 15.62,-32 15.62,-12 15.62,-12 15.62,-6 21.62,0 27.62,0 27.62,0 77.12,0 77.12,0 83.12,0 89.12,-6 89.12,-12 89.12,-12 89.12,-32 89.12,-32 89.12,-38 83.12,-44 77.12,-44"/>
<text text-anchor="middle" x="52.37" y="-15.4" font-family="Arial" font-size="18.00" fill="#ffffff">S final</text>
</g>
<!-- s_stop&#45;&gt;s_final -->
<g id="edge9" class="edge">
<title>s_stop&#45;&gt;s_final</title>
<path fill="none" stroke="#f8f9fa" d="M18.57,-98.52C12.25,-93.67 6.5,-87.76 2.87,-80.75 -2.37,-70.62 1.56,-60.75 9.07,-52.12"/>
<polygon fill="#f8f9fa" stroke="#f8f9fa" points="11.36,-54.78 16.1,-45.31 6.49,-49.75 11.36,-54.78"/>
<text text-anchor="middle" x="42.62" y="-65.55" font-family="Arial" font-size="16.00" fill="#ffffff">e_advance</text>
</g>
<!-- s_stop&#45;&gt;s_final -->
<g id="edge11" class="edge">
<title>s_stop&#45;&gt;s_final</title>
<path fill="none" stroke="#f8f9fa" d="M71.33,-98.49C75.82,-93.27 79.99,-87.21 82.37,-80.75 85.26,-72.93 85.06,-69.89 82.37,-62 81.43,-59.24 80.21,-56.52 78.8,-53.89"/>
<polygon fill="#f8f9fa" stroke="#f8f9fa" points="81.76,-52.01 73.42,-45.47 75.86,-55.78 81.76,-52.01"/>
<text text-anchor="middle" x="108.46" y="-65.55" font-family="Arial" font-size="16.00" fill="#ffffff">e_final</text>
</g>
<!-- s_start&#45;&gt;s_dynamic -->
<g id="edge7" class="edge">
<title>s_start&#45;&gt;s_dynamic</title>
<path fill="none" stroke="#f8f9fa" d="M52.37,-280.14C52.37,-268.1 52.37,-251.68 52.37,-237.6"/>
<polygon fill="#f8f9fa" stroke="#f8f9fa" points="55.87,-237.99 52.37,-227.99 48.87,-237.99 55.87,-237.99"/>
<text text-anchor="middle" x="92.12" y="-247.05" font-family="Arial" font-size="16.00" fill="#ffffff">e_advance</text>
</g>
<!-- s_start&#45;&gt;s_start -->
<g id="edge8" class="edge">
<title>s_start&#45;&gt;s_start</title>
<path fill="none" stroke="#f8f9fa" d="M87.04,-306.72C96.97,-306.39 104.62,-303.57 104.62,-298.25 104.62,-295.26 102.2,-293.06 98.32,-291.64"/>
<polygon fill="#f8f9fa" stroke="#f8f9fa" points="98.97,-288.2 88.54,-290.02 97.83,-295.11 98.97,-288.2"/>
<text text-anchor="middle" x="135.37" y="-292.43" font-family="Arial" font-size="16.00" fill="#ffffff">e_speak</text>
</g>
</g>
</svg>
